<?xml version="1.0" encoding="UTF-8" standalone="no"?>
<svg
   width="92"
   height="32"
   version="1.1"
   id="svg3"
   sodipodi:docname="default.svg"
   xml:space="preserve"
   inkscape:version="1.3.1 (91b66b0783, 2023-11-16)"
   xmlns:inkscape="http://www.inkscape.org/namespaces/inkscape"
   xmlns:sodipodi="http://sodipodi.sourceforge.net/DTD/sodipodi-0.dtd"
   xmlns="http://www.w3.org/2000/svg"
   xmlns:svg="http://www.w3.org/2000/svg"><defs
     id="defs3" /><sodipodi:namedview
     id="namedview3"
     pagecolor="#ffffff"
     bordercolor="#000000"
     borderopacity="0.25"
     inkscape:showpageshadow="2"
     inkscape:pageopacity="0.0"
     inkscape:pagecheckerboard="0"
     inkscape:deskcolor="#d1d1d1"
     inkscape:zoom="9.5536275"
     inkscape:cx="31.349349"
     inkscape:cy="18.788675"
     inkscape:window-width="1920"
     inkscape:window-height="991"
     inkscape:window-x="-9"
     inkscape:window-y="-9"
     inkscape:window-maximized="1"
     inkscape:current-layer="g3" /><g
     fill="none"
     fill-rule="evenodd"
     id="g3"><path
       fill="#1374EF"
       fill-rule="nonzero"
       d="M0 4c0-2.21 1.75-4 3.9-4h84.2C90.25 0 92 1.79 92 4v24c0 2.21-1.75 4-3.9 4H3.9A3.95 3.95 0 0 1 0 28V4z"
       id="path1"
       style="fill:#1a1a1a" /><path
       fill="#1269D3"
       d="M32 32V0h1v32z"
       id="path2"
       style="fill:#000000" /><path
       d="m 8.1718681,10.712523 c 0,-0.9659995 0.784,-1.7499998 1.7499995,-1.7499998 H 22.421868 c 0.966,0 1.75,0.7840003 1.75,1.7499998 v 10.5 a 1.75,1.75 0 0 1 -1.75,1.75 H 9.9218676 a 1.75,1.75 0 0 1 -1.7499995,-1.75 z m 14.4999999,3.25 H 9.6718676 v 7.25 c 0,0.138 0.112,0.25 0.25,0.25 H 22.421868 a 0.25,0.25 0 0 0 0.25,-0.25 z m -6,-3.5 v 2 h 6 v -1.75 a 0.25,0.25 0 0 0 -0.25,-0.25 z m -3.5,0 v 2 h 2 v -2 z m -3.2500004,0 a 0.25,0.25 0 0 0 -0.25,0.25 v 1.75 h 2.0000004 v -2 z"
       id="path1-2"
       style="fill:#ffffff" /><path
       style="font-size:16px;font-family:Sans;-inkscape-font-specification:Sans;fill:#ffffff"
       d="m 49.172462,11.056271 q 0.710938,0.78125 1.085938,1.914062 0.382812,1.132813 0.382812,2.570313 0,1.4375 -0.390625,2.578125 -0.382812,1.132812 -1.078125,1.890625 -0.71875,0.789062 -1.703125,1.1875 -0.976562,0.398437 -2.234375,0.398437 -1.226562,0 -2.234375,-0.40625 -1,-0.40625 -1.703125,-1.179687 -0.703125,-0.773438 -1.085937,-1.898438 -0.375,-1.125 -0.375,-2.570312 0,-1.421875 0.375,-2.546875 0.375,-1.132813 1.09375,-1.9375 0.6875,-0.765625 1.703125,-1.1718754 1.023437,-0.40625 2.226562,-0.40625 1.25,0 2.242188,0.4140625 1,0.4062499 1.695312,1.1640629 z m -0.140625,4.484375 q 0,-2.265625 -1.015625,-3.492188 -1.015625,-1.234375 -2.773437,-1.234375 -1.773438,0 -2.789063,1.234375 -1.007812,1.226563 -1.007812,3.492188 0,2.289062 1.03125,3.507812 1.03125,1.210938 2.765625,1.210938 1.734375,0 2.757812,-1.210938 1.03125,-1.21875 1.03125,-3.507812 z m 11.625,1.34375 q 0,1.0625 -0.304687,1.945312 -0.304688,0.875 -0.859375,1.484375 -0.515625,0.578125 -1.21875,0.898438 -0.695313,0.3125 -1.476563,0.3125 -0.679687,0 -1.234375,-0.148438 -0.546875,-0.148437 -1.117187,-0.460937 v 3.65625 H 52.97715 V 12.626583 h 1.46875 v 0.914063 q 0.585937,-0.492188 1.3125,-0.820313 0.734375,-0.335937 1.5625,-0.335937 1.578125,0 2.453125,1.195312 0.882812,1.1875 0.882812,3.304688 z m -1.515625,0.03906 q 0,-1.578125 -0.539062,-2.359375 -0.539063,-0.78125 -1.65625,-0.78125 -0.632813,0 -1.273438,0.273438 -0.640625,0.273437 -1.226562,0.71875 v 4.945312 q 0.625,0.28125 1.070312,0.382813 0.453125,0.101562 1.023438,0.101562 1.226562,0 1.914062,-0.828125 0.6875,-0.828125 0.6875,-2.453125 z m 11.109375,0.21875 H 63.8209 q 0,0.804688 0.242187,1.40625 0.242188,0.59375 0.664063,0.976563 0.40625,0.375 0.960937,0.5625 0.5625,0.1875 1.234375,0.1875 0.890625,0 1.789063,-0.351563 0.90625,-0.359375 1.289062,-0.703125 h 0.07813 v 1.601563 q -0.742187,0.3125 -1.515625,0.523437 -0.773437,0.210938 -1.625,0.210938 -2.171875,0 -3.390625,-1.171875 -1.21875,-1.179688 -1.21875,-3.34375 0,-2.140625 1.164063,-3.398438 1.171875,-1.257812 3.078125,-1.257812 1.765625,0 2.71875,1.03125 0.960937,1.03125 0.960937,2.929687 z m -1.429687,-1.125 q -0.0078,-1.15625 -0.585938,-1.789062 -0.570312,-0.632813 -1.742187,-0.632813 -1.179688,0 -1.882813,0.695313 -0.695312,0.695312 -0.789062,1.726562 z m 10.953125,5.335938 h -1.46875 v -4.96875 q 0,-0.601563 -0.07031,-1.125 -0.07031,-0.53125 -0.257812,-0.828125 -0.195313,-0.328125 -0.5625,-0.484375 -0.367188,-0.164063 -0.953125,-0.164063 -0.601563,0 -1.257813,0.296875 -0.65625,0.296875 -1.257812,0.757813 v 6.515625 h -1.46875 v -8.726563 h 1.46875 v 0.96875 q 0.6875,-0.570312 1.421875,-0.890625 0.734375,-0.320312 1.507812,-0.320312 1.414063,0 2.15625,0.851562 0.742188,0.851563 0.742188,2.453125 z"
       id="text3"
       aria-label="Open" /></g></svg>
